<svg width="177" height="140" viewBox="0 0 177 140" fill="none" xmlns="http://www.w3.org/2000/svg">
<g clip-path="url(#clip0_2403_21437)">
<path d="M75.6581 38.4447C82.1189 34.5649 90.1764 34.4977 96.7011 38.269L160.885 75.3681C168.332 79.6721 168.421 90.3896 161.048 94.8172L100.03 131.458C93.5697 135.338 85.5121 135.405 78.9875 131.634L14.8032 94.5348C7.35697 90.2309 7.26748 79.5134 14.6408 75.0857L75.6581 38.4447Z" fill="#EFEFEF" stroke="black" stroke-width="0.5"/>
<path d="M75.6581 29.264C82.1189 25.3843 90.1764 25.317 96.7011 29.0883L160.885 66.1875C168.332 70.4914 168.421 81.2089 161.048 85.6366L100.03 122.278C93.5697 126.157 85.5121 126.225 78.9875 122.453L14.8032 85.3542C7.35697 81.0502 7.26748 70.3327 14.6408 65.9051L75.6581 29.264Z" fill="white" stroke="black" stroke-width="0.5"/>
<path d="M67.6903 100.034L70.6837 101.55L72.9465 101.023L74.3864 98.9012L67.6903 100.034Z" fill="black"/>
<path d="M77.8657 102.927L81.2359 97.8476L77.9335 98.4991L74.4412 103.455L76.7075 104.602L77.8657 102.927Z" fill="black"/>
<path fill-rule="evenodd" clip-rule="evenodd" d="M81.1739 106.886C83.6522 108.141 87.6704 108.141 90.1487 106.886C92.627 105.631 92.627 103.596 90.1487 102.34C87.6704 101.085 83.6522 101.085 81.1739 102.34C78.6956 103.596 78.6956 105.631 81.1739 106.886ZM82.9353 105.994C84.4408 106.756 86.8817 106.756 88.3873 105.994C89.8928 105.231 89.8928 103.995 88.3873 103.232C86.8817 102.47 84.4408 102.47 82.9353 103.232C81.4298 103.995 81.4298 105.231 82.9353 105.994Z" fill="black"/>
<path d="M71.8868 49.3094C71.8868 55.7131 70.1561 61.5017 67.368 65.6838C64.5791 69.8672 60.7475 72.4245 56.5415 72.4245C52.3355 72.4245 48.504 69.8672 45.715 65.6838C42.927 61.5017 41.1962 55.7131 41.1962 49.3094C41.1962 42.9057 42.927 37.117 45.715 32.9349C48.504 28.7515 52.3355 26.1942 56.5415 26.1942C60.7475 26.1942 64.5791 28.7515 67.368 32.9349C70.1561 37.117 71.8868 42.9057 71.8868 49.3094Z" fill="black" stroke="black" stroke-width="0.388489"/>
<path d="M77.7092 49.3094C77.7092 55.7121 75.9787 61.4996 73.1914 65.6806C70.4031 69.863 66.5731 72.4187 62.3696 72.4187C58.1662 72.4187 54.3362 69.863 51.5479 65.6806C48.7606 61.4996 47.0301 55.7121 47.0301 49.3094C47.0301 42.9066 48.7606 37.1191 51.5479 32.9381C54.3362 28.7557 58.1662 26.2 62.3696 26.2C66.5731 26.2 70.4031 28.7557 73.1914 32.9381C75.9787 37.1191 77.7092 42.9066 77.7092 49.3094Z" fill="white" stroke="black" stroke-width="0.4"/>
<path d="M74.794 48.8236C74.794 54.0195 73.3896 58.7144 71.1295 62.1045C68.8685 65.496 65.767 67.5625 62.3681 67.5625C58.9692 67.5625 55.8676 65.496 53.6066 62.1045C51.3466 58.7144 49.9422 54.0195 49.9422 48.8236C49.9422 43.6278 51.3466 38.9329 53.6066 35.5428C55.8676 32.1513 58.9692 30.0848 62.3681 30.0848C65.767 30.0848 68.8685 32.1513 71.1295 35.5428C73.3896 38.9329 74.794 43.6278 74.794 48.8236Z" fill="white" stroke="black" stroke-width="0.4"/>
<path d="M62.173 60.7214V57.6987H63.6353V60.7214H62.173ZM62.173 39.7194V36.6836H63.6353V39.7194H62.173ZM63.0192 58.523C62.2196 58.523 61.4994 58.2962 60.8586 57.8426C60.2233 57.3802 59.7002 56.7303 59.2895 55.8929C58.8787 55.0467 58.6103 54.0522 58.4844 52.9094L59.922 52.5299C60.0973 53.6902 60.467 54.6105 61.0311 55.2909C61.6007 55.9714 62.2853 56.3116 63.0849 56.3116C63.89 56.3116 64.5417 56.0019 65.0401 55.3825C65.5385 54.7632 65.7877 53.965 65.7877 52.9879C65.7877 52.2726 65.6535 51.6968 65.3852 51.2607C65.1223 50.8245 64.6787 50.4537 64.0543 50.1484L61.3515 48.8137C59.7358 48.0111 58.928 46.4758 58.928 44.2077C58.928 43.1434 59.0896 42.2143 59.4127 41.4205C59.7413 40.6179 60.1986 39.9985 60.7846 39.5624C61.3761 39.1175 62.0635 38.8994 62.8467 38.9081C63.6079 38.9168 64.2871 39.1436 64.884 39.5885C65.481 40.0247 65.9739 40.6528 66.3628 41.4728C66.7571 42.2928 67.0227 43.2742 67.1597 44.417L65.6809 44.8488C65.6042 44.1073 65.4345 43.4574 65.1716 42.8991C64.9142 42.3408 64.5856 41.909 64.1857 41.6037C63.7859 41.2896 63.3368 41.1282 62.8384 41.1195C62.3729 41.1108 61.9539 41.2329 61.5815 41.4859C61.2146 41.7389 60.9243 42.0922 60.7107 42.5458C60.4971 42.9995 60.3903 43.5185 60.3903 44.103C60.3903 44.7398 60.5382 45.2807 60.8339 45.7256C61.1352 46.1617 61.6062 46.5369 62.247 46.8509L64.4651 47.8977C65.4399 48.3601 66.1437 48.9838 66.5764 49.7689C67.009 50.5453 67.2254 51.5834 67.2254 52.8832C67.2254 54.0086 67.0501 54.9943 66.6996 55.8405C66.3546 56.6867 65.8644 57.3453 65.2291 57.8164C64.5992 58.2875 63.8626 58.523 63.0192 58.523Z" fill="black"/>
<ellipse cx="115.903" cy="77.0113" rx="10.3298" ry="16.9123" transform="rotate(-99.2741 115.903 77.0113)" fill="black"/>
<path d="M113.742 63.3264C118.321 62.5787 122.642 63.0373 125.924 64.373C129.21 65.7102 131.424 67.9101 131.868 70.6305C132.312 73.3509 130.914 76.1407 128.223 78.4537C125.536 80.7642 121.586 82.5735 117.007 83.3212C112.428 84.0689 108.107 83.6103 104.824 82.2746C101.538 80.9374 99.3245 78.7375 98.8803 76.0171C98.4361 73.2967 99.8348 70.5069 102.525 68.1939C105.212 65.8834 109.163 64.074 113.742 63.3264Z" fill="white" stroke="black" stroke-width="0.4"/>
<path d="M114.008 64.9534C117.851 64.326 121.475 64.7111 124.227 65.8308C126.982 66.9519 128.83 68.7933 129.201 71.0637C129.572 73.3342 128.405 75.6678 126.15 77.6072C123.897 79.544 120.584 81.062 116.741 81.6894C112.899 82.3169 109.275 81.9317 106.523 80.812C103.768 79.6909 101.919 77.8495 101.549 75.5791C101.178 73.3087 102.345 70.975 104.6 69.0356C106.853 67.0989 110.166 65.5808 114.008 64.9534Z" fill="white" stroke="black" stroke-width="0.4"/>
<path d="M122.064 68.1253C126.365 69.7118 126.994 73.3744 123.47 76.306C119.945 79.2375 113.601 80.3278 109.3 78.7412C104.999 77.1546 104.37 73.492 107.894 70.5605C111.419 67.629 117.763 66.5387 122.064 68.1253Z" fill="white" stroke="#222326" stroke-width="1.50921"/>
<path d="M120.928 74.2691C120.792 74.2445 120.649 74.2082 120.499 74.1603C120.349 74.1124 120.196 74.0579 120.042 73.9969C120.052 74.1223 120.04 74.2532 120.006 74.3895C119.971 74.5259 119.909 74.6651 119.82 74.8073C119.731 74.9443 119.608 75.083 119.451 75.2233C119.299 75.3663 119.108 75.5057 118.879 75.6417C118.506 75.863 118.107 76.0362 117.683 76.1613C117.263 76.2838 116.843 76.3567 116.422 76.3798C116.001 76.403 115.593 76.3763 115.198 76.2998C114.799 76.2207 114.44 76.0915 114.121 75.9122C113.341 75.4741 113.025 74.9667 113.172 74.3898C113.32 73.8077 113.962 73.1794 115.1 72.5049L116.146 71.885L115.708 71.639C115.353 71.4392 114.958 71.3496 114.523 71.3704C114.084 71.3885 113.649 71.5255 113.217 71.7814C112.835 72.0081 112.64 72.2208 112.634 72.4195C112.622 72.6158 112.756 72.792 113.034 72.9483L111.158 74.0601C110.844 73.8833 110.613 73.6755 110.465 73.4367C110.322 73.1952 110.274 72.9369 110.32 72.6619C110.371 72.3842 110.524 72.0988 110.779 71.8056C111.034 71.5073 111.406 71.2128 111.896 70.9222C112.337 70.6609 112.801 70.449 113.288 70.2865C113.78 70.1214 114.272 70.0164 114.765 69.9715C115.258 69.9266 115.748 69.9497 116.233 70.0409C116.714 70.1294 117.169 70.2941 117.597 70.5349L120.77 72.318C121.166 72.5409 121.519 72.7107 121.828 72.8274C122.138 72.9441 122.433 73.0269 122.714 73.0759L122.83 73.1413L120.928 74.2691ZM117.807 74.5796C117.996 74.4676 118.149 74.3508 118.265 74.2292C118.381 74.1076 118.468 73.9876 118.526 73.8693C118.583 73.751 118.613 73.6382 118.617 73.531C118.616 73.4212 118.594 73.3234 118.552 73.2376L117.281 72.5229L116.323 73.0908C116.03 73.2641 115.81 73.4287 115.663 73.5846C115.511 73.7381 115.422 73.8828 115.396 74.0191C115.366 74.1527 115.392 74.2793 115.475 74.3986C115.553 74.5153 115.677 74.6211 115.846 74.7158C116.101 74.8593 116.4 74.9265 116.745 74.9173C117.093 74.9054 117.447 74.7929 117.807 74.5796Z" fill="#222326"/>
<ellipse cx="136.769" cy="20.0833" rx="11.3235" ry="18.5391" transform="rotate(-22.185 136.769 20.0833)" fill="black"/>
<path d="M150.879 14.4163C152.801 19.1283 153.37 23.8613 152.746 27.6996C152.122 31.542 150.311 34.4535 147.504 35.5979C144.698 36.7423 141.367 35.9275 138.234 33.6175C135.104 31.3099 132.201 27.5287 130.279 22.8167C128.358 18.1046 127.789 13.3717 128.413 9.53333C129.037 5.69096 130.848 2.77948 133.654 1.63505C136.461 0.490626 139.791 1.30544 142.925 3.61543C146.055 5.92302 148.958 9.70422 150.879 14.4163Z" fill="white" stroke="black" stroke-width="0.4"/>
<path d="M149.207 15.097C150.819 19.0514 151.296 23.0219 150.773 26.2401C150.249 29.4623 148.732 31.8958 146.388 32.8516C144.045 33.8073 141.258 33.1287 138.631 31.1916C136.006 29.2568 133.571 26.0851 131.958 22.1306C130.346 18.1762 129.869 14.2057 130.392 10.9875C130.916 7.7653 132.433 5.33176 134.777 4.37604C137.12 3.42032 139.907 4.09889 142.534 6.03604C145.158 7.97079 147.594 11.1426 149.207 15.097Z" fill="white" stroke="black" stroke-width="0.4"/>
<g clip-path="url(#clip1_2403_21437)">
<path d="M139.222 27.1892C142.982 30.3256 146.707 28.9577 147.544 24.1339C148.38 19.3102 146.011 12.8572 142.252 9.72088C138.493 6.58451 134.767 7.95241 133.931 12.7762C133.094 17.5999 135.463 24.0528 139.222 27.1892Z" fill="white"/>
<path fill-rule="evenodd" clip-rule="evenodd" d="M142.535 8.09591C146.993 11.8156 149.804 19.4691 148.812 25.1908C147.819 30.9116 143.4 32.5342 138.942 28.8146C134.483 25.0944 131.673 17.4405 132.665 11.7197C133.658 5.99802 138.076 4.37573 142.535 8.09591ZM143.848 12.6996C143.679 12.473 143.506 12.4875 143.464 12.7328L143.359 13.3361C143.331 13.501 143.395 13.7683 143.505 13.9249C145.28 16.4454 146.25 19.9826 145.766 22.773C145.282 25.5634 143.486 26.7932 141.396 26.0884C141.253 26.0407 141.139 26.1353 141.108 26.3151L141.004 26.9185C140.961 27.1638 141.086 27.4266 141.281 27.5035C143.896 28.5397 146.174 27.0796 146.775 23.6138C147.376 20.148 146.116 15.7381 143.848 12.6996ZM140.436 10.2067C140.479 9.96138 140.354 9.69904 140.159 9.62168C137.543 8.58543 135.266 10.0455 134.665 13.5113C134.064 16.9771 135.323 21.3879 137.591 24.4264C137.761 24.653 137.933 24.6385 137.976 24.3932L138.08 23.7898C138.109 23.6258 138.044 23.3576 137.934 23.2011C136.159 20.6805 135.19 17.1434 135.674 14.3538C136.157 11.5643 137.954 10.3336 140.044 11.0375C140.173 11.0814 140.303 10.9749 140.331 10.8108L140.436 10.2067ZM141.871 13.594L141.366 13.1732C141.227 13.0568 141.089 13.1075 141.057 13.2865L140.884 14.2893C139.852 13.637 139.057 13.952 138.867 15.0476C138.621 16.4664 139.194 17.5744 140.562 18.9949C141.484 19.9949 141.71 20.4861 141.589 21.1847C141.468 21.8834 140.925 21.9633 140.274 21.4201C139.393 20.6852 139.189 19.9485 139.193 19.2198C139.194 19.0471 139.112 18.8514 138.991 18.7507L138.416 18.2706C138.271 18.1493 138.128 18.2224 138.122 18.4266C138.082 19.6263 138.484 20.8668 139.551 21.9765L139.374 22.9991C139.343 23.1782 139.431 23.4175 139.57 23.5339L140.075 23.9547C140.214 24.0711 140.352 24.0204 140.383 23.8414L140.561 22.8187C141.639 23.4757 142.466 23.1005 142.666 21.9494C142.929 20.4361 142.299 19.3294 140.955 17.9294C139.965 16.8853 139.821 16.4138 139.927 15.7997C140.028 15.2179 140.446 15.094 141.115 15.6517C141.719 16.1561 142.02 16.717 142.055 17.4606C142.063 17.6268 142.143 17.8062 142.256 17.9005L142.787 18.3435C142.934 18.4669 143.08 18.3879 143.08 18.1767C143.083 17.0504 142.668 16.0257 141.888 15.1613L142.067 14.1287C142.097 13.9492 142.009 13.7099 141.871 13.594Z" fill="#2775CA"/>
</g>
</g>
<defs>
<clipPath id="clip0_2403_21437">
<rect x="0.333984" width="176" height="140" rx="12" fill="white"/>
</clipPath>
<clipPath id="clip1_2403_21437">
<rect width="21.0279" height="21.0279" fill="white" transform="matrix(0.76785 0.640629 -0.170876 0.985292 134.466 1.3623)"/>
</clipPath>
</defs>
</svg>
